<mxfile host="app.diagrams.net" modified="2024-07-24T08:05:40.243Z" agent="Mozilla/5.0 (Windows NT 10.0; Win64; x64) AppleWebKit/537.36 (KHTML, like Gecko) Chrome/126.0.0.0 Safari/537.36" etag="0EgBxxcZBG8ZshyoOx7x" version="24.7.3" type="github">
  <diagram name="第 1 页" id="mB2ytg4VavdGL_v1y-Tx">
    <mxGraphModel dx="1434" dy="738" grid="1" gridSize="10" guides="1" tooltips="1" connect="1" arrows="1" fold="1" page="1" pageScale="1" pageWidth="827" pageHeight="1169" math="0" shadow="0">
      <root>
        <mxCell id="0" />
        <mxCell id="1" parent="0" />
        <mxCell id="_lkyO2kiW3pLqTKqFde5-1" value="Vertical Container" style="swimlane;whiteSpace=wrap;html=1;" vertex="1" parent="1">
          <mxGeometry x="40" y="100" width="760" height="830" as="geometry">
            <mxRectangle x="40" y="100" width="140" height="30" as="alternateBounds" />
          </mxGeometry>
        </mxCell>
        <mxCell id="_lkyO2kiW3pLqTKqFde5-7" value="" style="edgeStyle=orthogonalEdgeStyle;rounded=0;orthogonalLoop=1;jettySize=auto;html=1;" edge="1" parent="_lkyO2kiW3pLqTKqFde5-1" source="_lkyO2kiW3pLqTKqFde5-5" target="_lkyO2kiW3pLqTKqFde5-6">
          <mxGeometry relative="1" as="geometry" />
        </mxCell>
        <mxCell id="_lkyO2kiW3pLqTKqFde5-9" value="" style="edgeStyle=orthogonalEdgeStyle;rounded=0;orthogonalLoop=1;jettySize=auto;html=1;" edge="1" parent="_lkyO2kiW3pLqTKqFde5-1" source="_lkyO2kiW3pLqTKqFde5-5" target="_lkyO2kiW3pLqTKqFde5-8">
          <mxGeometry relative="1" as="geometry" />
        </mxCell>
        <mxCell id="_lkyO2kiW3pLqTKqFde5-5" value="&lt;font style=&quot;font-size: 16px;&quot;&gt;待测样本&lt;/font&gt;" style="rounded=1;whiteSpace=wrap;html=1;" vertex="1" parent="_lkyO2kiW3pLqTKqFde5-1">
          <mxGeometry x="318" y="42" width="120" height="60" as="geometry" />
        </mxCell>
        <mxCell id="_lkyO2kiW3pLqTKqFde5-14" value="" style="edgeStyle=orthogonalEdgeStyle;rounded=0;orthogonalLoop=1;jettySize=auto;html=1;" edge="1" parent="_lkyO2kiW3pLqTKqFde5-1" source="_lkyO2kiW3pLqTKqFde5-6" target="_lkyO2kiW3pLqTKqFde5-13">
          <mxGeometry relative="1" as="geometry" />
        </mxCell>
        <mxCell id="_lkyO2kiW3pLqTKqFde5-17" style="edgeStyle=orthogonalEdgeStyle;rounded=0;orthogonalLoop=1;jettySize=auto;html=1;exitX=0.5;exitY=1;exitDx=0;exitDy=0;entryX=0.5;entryY=0;entryDx=0;entryDy=0;" edge="1" parent="_lkyO2kiW3pLqTKqFde5-1" source="_lkyO2kiW3pLqTKqFde5-6" target="_lkyO2kiW3pLqTKqFde5-15">
          <mxGeometry relative="1" as="geometry" />
        </mxCell>
        <mxCell id="_lkyO2kiW3pLqTKqFde5-6" value="&lt;span style=&quot;text-wrap: nowrap;&quot;&gt;提取DNA&lt;/span&gt;" style="rhombus;whiteSpace=wrap;html=1;rounded=1;" vertex="1" parent="_lkyO2kiW3pLqTKqFde5-1">
          <mxGeometry x="138" y="32" width="80" height="80" as="geometry" />
        </mxCell>
        <mxCell id="_lkyO2kiW3pLqTKqFde5-19" value="" style="edgeStyle=orthogonalEdgeStyle;rounded=0;orthogonalLoop=1;jettySize=auto;html=1;" edge="1" parent="_lkyO2kiW3pLqTKqFde5-1" source="_lkyO2kiW3pLqTKqFde5-8" target="_lkyO2kiW3pLqTKqFde5-18">
          <mxGeometry relative="1" as="geometry" />
        </mxCell>
        <mxCell id="_lkyO2kiW3pLqTKqFde5-22" style="edgeStyle=orthogonalEdgeStyle;rounded=0;orthogonalLoop=1;jettySize=auto;html=1;exitX=0.5;exitY=1;exitDx=0;exitDy=0;entryX=0.5;entryY=0;entryDx=0;entryDy=0;" edge="1" parent="_lkyO2kiW3pLqTKqFde5-1" source="_lkyO2kiW3pLqTKqFde5-8" target="_lkyO2kiW3pLqTKqFde5-20">
          <mxGeometry relative="1" as="geometry" />
        </mxCell>
        <mxCell id="_lkyO2kiW3pLqTKqFde5-8" value="&lt;span style=&quot;text-wrap: nowrap;&quot;&gt;提取RNA&lt;/span&gt;" style="rhombus;whiteSpace=wrap;html=1;rounded=1;" vertex="1" parent="_lkyO2kiW3pLqTKqFde5-1">
          <mxGeometry x="538" y="32" width="80" height="80" as="geometry" />
        </mxCell>
        <mxCell id="_lkyO2kiW3pLqTKqFde5-43" value="" style="edgeStyle=orthogonalEdgeStyle;rounded=0;orthogonalLoop=1;jettySize=auto;html=1;" edge="1" parent="_lkyO2kiW3pLqTKqFde5-1" source="_lkyO2kiW3pLqTKqFde5-13" target="_lkyO2kiW3pLqTKqFde5-42">
          <mxGeometry relative="1" as="geometry" />
        </mxCell>
        <mxCell id="_lkyO2kiW3pLqTKqFde5-13" value="宏基因组二代测序&lt;div&gt;（mNGS）&lt;/div&gt;" style="whiteSpace=wrap;html=1;rounded=1;" vertex="1" parent="_lkyO2kiW3pLqTKqFde5-1">
          <mxGeometry x="40" y="241" width="120" height="60" as="geometry" />
        </mxCell>
        <mxCell id="_lkyO2kiW3pLqTKqFde5-44" style="edgeStyle=orthogonalEdgeStyle;rounded=0;orthogonalLoop=1;jettySize=auto;html=1;exitX=0.5;exitY=1;exitDx=0;exitDy=0;" edge="1" parent="_lkyO2kiW3pLqTKqFde5-1" source="_lkyO2kiW3pLqTKqFde5-15" target="_lkyO2kiW3pLqTKqFde5-42">
          <mxGeometry relative="1" as="geometry" />
        </mxCell>
        <mxCell id="_lkyO2kiW3pLqTKqFde5-15" value="宏基因组三代测序&lt;div&gt;（mTGS）&lt;/div&gt;" style="whiteSpace=wrap;html=1;rounded=1;" vertex="1" parent="_lkyO2kiW3pLqTKqFde5-1">
          <mxGeometry x="201" y="241" width="120" height="60" as="geometry" />
        </mxCell>
        <mxCell id="_lkyO2kiW3pLqTKqFde5-52" value="" style="edgeStyle=orthogonalEdgeStyle;rounded=0;orthogonalLoop=1;jettySize=auto;html=1;" edge="1" parent="_lkyO2kiW3pLqTKqFde5-1" source="_lkyO2kiW3pLqTKqFde5-18" target="_lkyO2kiW3pLqTKqFde5-51">
          <mxGeometry relative="1" as="geometry" />
        </mxCell>
        <mxCell id="_lkyO2kiW3pLqTKqFde5-18" value="宏转录组二代测序&lt;div&gt;（mtNGS）&lt;/div&gt;" style="whiteSpace=wrap;html=1;rounded=1;" vertex="1" parent="_lkyO2kiW3pLqTKqFde5-1">
          <mxGeometry x="430" y="241" width="120" height="60" as="geometry" />
        </mxCell>
        <mxCell id="_lkyO2kiW3pLqTKqFde5-20" value="宏转录组三代测序&lt;div&gt;（mtTGS）&lt;/div&gt;" style="whiteSpace=wrap;html=1;rounded=1;" vertex="1" parent="_lkyO2kiW3pLqTKqFde5-1">
          <mxGeometry x="618" y="241" width="120" height="60" as="geometry" />
        </mxCell>
        <mxCell id="_lkyO2kiW3pLqTKqFde5-46" value="" style="edgeStyle=orthogonalEdgeStyle;rounded=0;orthogonalLoop=1;jettySize=auto;html=1;" edge="1" parent="_lkyO2kiW3pLqTKqFde5-1" source="_lkyO2kiW3pLqTKqFde5-42" target="_lkyO2kiW3pLqTKqFde5-45">
          <mxGeometry relative="1" as="geometry" />
        </mxCell>
        <mxCell id="_lkyO2kiW3pLqTKqFde5-42" value="碱基识别" style="whiteSpace=wrap;html=1;rounded=1;" vertex="1" parent="_lkyO2kiW3pLqTKqFde5-1">
          <mxGeometry x="118" y="350" width="120" height="60" as="geometry" />
        </mxCell>
        <mxCell id="_lkyO2kiW3pLqTKqFde5-48" value="" style="edgeStyle=orthogonalEdgeStyle;rounded=0;orthogonalLoop=1;jettySize=auto;html=1;" edge="1" parent="_lkyO2kiW3pLqTKqFde5-1" source="_lkyO2kiW3pLqTKqFde5-45" target="_lkyO2kiW3pLqTKqFde5-47">
          <mxGeometry relative="1" as="geometry" />
        </mxCell>
        <mxCell id="_lkyO2kiW3pLqTKqFde5-45" value="质量控制（QC）" style="whiteSpace=wrap;html=1;rounded=1;" vertex="1" parent="_lkyO2kiW3pLqTKqFde5-1">
          <mxGeometry x="118" y="446" width="120" height="60" as="geometry" />
        </mxCell>
        <mxCell id="_lkyO2kiW3pLqTKqFde5-50" value="" style="edgeStyle=orthogonalEdgeStyle;rounded=0;orthogonalLoop=1;jettySize=auto;html=1;" edge="1" parent="_lkyO2kiW3pLqTKqFde5-1" source="_lkyO2kiW3pLqTKqFde5-47" target="_lkyO2kiW3pLqTKqFde5-49">
          <mxGeometry relative="1" as="geometry" />
        </mxCell>
        <mxCell id="_lkyO2kiW3pLqTKqFde5-47" value="过滤宿主/主导物种基因组" style="whiteSpace=wrap;html=1;rounded=1;" vertex="1" parent="_lkyO2kiW3pLqTKqFde5-1">
          <mxGeometry x="118" y="543" width="120" height="60" as="geometry" />
        </mxCell>
        <mxCell id="_lkyO2kiW3pLqTKqFde5-49" value="注释物种并建立图谱" style="whiteSpace=wrap;html=1;rounded=1;" vertex="1" parent="_lkyO2kiW3pLqTKqFde5-1">
          <mxGeometry x="118" y="640" width="120" height="60" as="geometry" />
        </mxCell>
        <mxCell id="_lkyO2kiW3pLqTKqFde5-51" value="" style="whiteSpace=wrap;html=1;rounded=1;" vertex="1" parent="_lkyO2kiW3pLqTKqFde5-1">
          <mxGeometry x="430" y="381" width="120" height="60" as="geometry" />
        </mxCell>
        <mxCell id="_lkyO2kiW3pLqTKqFde5-41" value="" style="endArrow=none;html=1;rounded=0;exitX=0;exitY=0.25;exitDx=0;exitDy=0;entryX=1;entryY=0.25;entryDx=0;entryDy=0;" edge="1" parent="1">
          <mxGeometry width="50" height="50" relative="1" as="geometry">
            <mxPoint x="40" y="241" as="sourcePoint" />
            <mxPoint x="790" y="241" as="targetPoint" />
          </mxGeometry>
        </mxCell>
      </root>
    </mxGraphModel>
  </diagram>
</mxfile>
